<?xml version="1.0" encoding="UTF-8"?>
<svg version="1.1" xmlns="http://www.w3.org/2000/svg" width="774" height="232">
<path d="M0 0 C255.42 0 510.84 0 774 0 C774 76.56 774 153.12 774 232 C518.58 232 263.16 232 0 232 C0 155.44 0 78.88 0 0 Z " fill="#FEFEFE" transform="translate(0,0)"/>
<path d="M0 0 C69.63 0 139.26 0 211 0 C211 38.28 211 76.56 211 116 C141.37 116 71.74 116 0 116 C0 77.72 0 39.44 0 0 Z " fill="#FEFEFE" transform="translate(88,74)"/>
<path d="M0 0 C0.79755426 0.00446144 1.59510851 0.00892289 2.41683108 0.01351953 C3.26171857 0.01039954 4.10660606 0.00727956 4.9770962 0.00406504 C7.82459569 -0.00394915 10.6718841 0.00242196 13.5193854 0.00869775 C15.55419706 0.00598938 17.58900774 0.00242932 19.62381655 -0.00192237 C25.16300339 -0.0110676 30.70211602 -0.00749319 36.24130422 -0.0011642 C42.0281783 0.00388547 47.81504586 -0.00079283 53.60192019 -0.00393653 C63.32262988 -0.00757949 73.04330922 -0.00276874 82.7640143 0.00674462 C94.01343044 0.01762674 105.26277406 0.01410667 116.51218843 0.00309181 C126.15721274 -0.00597532 135.80221519 -0.00726906 145.44724238 -0.00203085 C151.21363142 0.0010924 156.97998636 0.00148853 162.74637324 -0.00510383 C168.16766806 -0.01086822 173.58886916 -0.00689703 179.01015383 0.00468469 C181.0036272 0.00733627 182.99710843 0.00655774 184.99057871 0.00215936 C187.7045478 -0.003278 190.41821353 0.00351598 193.13216311 0.01351953 C193.92748664 0.00905808 194.72281017 0.00459664 195.54223442 0 C199.34605786 0.02733363 201.093956 0.1047982 204.33798891 2.26748681 C204.33798891 10.84748681 204.33798891 19.42748681 204.33798891 28.26748681 C134.37798891 28.26748681 64.41798891 28.26748681 -7.66201109 28.26748681 C-7.66201109 0.05525644 -7.66201109 0.05525644 0 0 Z " fill="#FAFCFD" transform="translate(95.66201108694077,42.732513189315796)"/>
<path d="M0 0 C1.28002847 -0.01041829 1.28002847 -0.01041829 2.5859161 -0.02104706 C5.45036926 -0.03936898 8.31399905 -0.02903838 11.17848206 -0.01878357 C13.23005291 -0.02583943 15.28161856 -0.03458303 17.33317566 -0.04489136 C22.90962793 -0.06743266 28.48579702 -0.06443447 34.06227756 -0.05556989 C38.71456115 -0.05046719 43.36679118 -0.05774674 48.01906925 -0.06504196 C58.99266443 -0.08205611 69.9661206 -0.0784599 80.93971252 -0.06175232 C92.26763743 -0.04482849 103.59517706 -0.06066592 114.92305988 -0.0929752 C124.64291249 -0.11964971 134.36264501 -0.12695289 144.08253056 -0.11846012 C149.89038806 -0.1135248 155.69801369 -0.11577936 161.50584221 -0.13624763 C166.96672749 -0.15457105 172.42705751 -0.14868663 177.88791275 -0.12404823 C179.89344695 -0.11902979 181.89902321 -0.12255677 183.90452385 -0.13519669 C186.64011676 -0.1510756 189.37386969 -0.13622565 192.109375 -0.11352539 C193.30324826 -0.13127898 193.30324826 -0.13127898 194.52124017 -0.14939123 C198.40717161 -0.08376241 200.42707481 0.37734067 203.61113834 2.66533089 C205.96976043 6.01379232 206.24230345 7.67008026 206.23963928 11.73217773 C206.25084808 12.98408905 206.26205688 14.23600037 206.27360535 15.52584839 C206.26069531 16.90550696 206.24728123 18.2851609 206.2334137 19.66481018 C206.23691624 21.12378077 206.24257633 22.58274754 206.25022888 24.04170227 C206.26446901 27.99854848 206.24742273 31.95469907 206.22394371 35.91147876 C206.20382234 40.05533243 206.209715 44.19915758 206.21205139 48.3430481 C206.21199783 55.30279496 206.19224714 62.26227028 206.16017151 69.22193909 C206.12329345 77.26258516 206.11449406 85.30287536 206.12146902 93.34359497 C206.12778004 101.08410337 206.11700774 108.82449001 206.09750366 116.56497383 C206.08933951 119.85630596 206.08661831 123.14757576 206.0881958 126.43891716 C206.08907643 130.31730982 206.07481104 134.19536566 206.04896927 138.07366943 C206.04182251 139.49502491 206.03971667 140.91641627 206.04308701 142.33778572 C206.04681679 144.28193549 206.03017381 146.2260922 206.0125885 148.17016602 C206.00699543 149.80029459 206.00699543 149.80029459 206.00128937 151.46335506 C205.55408362 155.02515868 204.45883483 157.44837689 202.61817932 160.5146637 C199.4284101 162.10954831 195.97380933 161.66263748 192.47013855 161.66183472 C191.19161501 161.66734975 191.19161501 161.66734975 189.8872627 161.6729762 C187.01452188 161.68404064 184.1418172 161.68786151 181.26905823 161.69166565 C179.216165 161.69792812 177.16327291 161.70457472 175.11038208 161.71157837 C169.52157115 161.72900598 163.93276878 161.7395445 158.3439374 161.7477839 C154.85533657 161.75292932 151.36673843 161.75900519 147.8781395 161.76529503 C136.97196408 161.78435027 126.06579545 161.79858184 115.15960658 161.806907 C102.55337442 161.8166878 89.94731746 161.84302799 77.34114707 161.88340789 C67.60778991 161.91352032 57.87448311 161.92837116 48.14108026 161.93168801 C42.32261351 161.93404368 36.50433386 161.94307139 30.6859169 161.96814919 C25.21449459 161.99135032 19.74338363 161.99569528 14.27192497 161.9853878 C12.26112142 161.98489042 10.25030295 161.99127006 8.23954582 162.00494385 C5.49938189 162.02253886 2.76035045 162.01561817 0.02018738 162.00241089 C-1.1801015 162.01886476 -1.1801015 162.01886476 -2.40463865 162.03565103 C-5.81246417 161.99585277 -7.99806574 161.76693275 -10.87520027 159.87559032 C-12.82580446 156.81892566 -12.88487842 154.87192359 -12.88975525 151.25209045 C-12.90103455 149.96500687 -12.91231384 148.67792328 -12.92393494 147.35183716 C-12.9161579 145.9275948 -12.90796523 144.50335465 -12.8993988 143.07911682 C-12.90481955 141.57763998 -12.91194195 140.07616847 -12.92063904 138.57470703 C-12.93888121 134.49822651 -12.93180136 130.42215071 -12.9191227 126.34566307 C-12.90899958 122.0807371 -12.91838645 117.81584591 -12.92466736 113.55091858 C-12.93194579 106.38854242 -12.92235099 99.22633122 -12.90330505 92.0639801 C-12.88153586 83.78185892 -12.8885871 75.5001316 -12.91061068 67.21801996 C-12.92875917 60.10877182 -12.93132572 52.99964229 -12.920856 45.89037848 C-12.914618 41.64361966 -12.91379375 37.39704601 -12.92700195 33.15029907 C-12.93855191 29.1577923 -12.93055086 25.1657936 -12.90742493 21.17334175 C-12.90213319 19.70759996 -12.90365962 18.24181545 -12.91247559 16.77609062 C-12.92339436 14.7764882 -12.90727826 12.7767924 -12.88975525 10.77723694 C-12.88824715 9.65784477 -12.88673904 8.53845261 -12.88518524 7.38513947 C-12.38182068 4.5146637 -12.38182068 4.5146637 -10.87393856 2.15541935 C-7.3449646 -0.16797956 -4.08677609 -0.04219549 0 0 Z M-9.38182068 5.5146637 C-9.38182068 14.0946637 -9.38182068 22.6746637 -9.38182068 31.5146637 C60.57817932 31.5146637 130.53817932 31.5146637 202.61817932 31.5146637 C202.61817932 22.9346637 202.61817932 14.3546637 202.61817932 5.5146637 C198.82419246 2.98533912 195.806917 3.23604469 191.41235352 3.26069641 C190.56590603 3.25757643 189.71945855 3.25445645 188.84736115 3.25124192 C186.00063347 3.24324117 183.15411772 3.24959362 180.30738831 3.25587463 C178.27080663 3.25316571 176.23422593 3.24960534 174.19764709 3.24525452 C168.65858658 3.23611704 163.11960036 3.23968022 157.58053851 3.24601269 C151.79320238 3.25106496 146.00587275 3.24638346 140.21853638 3.24324036 C130.49960687 3.23959875 120.78070773 3.24440523 111.06178284 3.25392151 C99.81175792 3.26480948 88.56180547 3.26127876 77.3117823 3.2502687 C67.66590421 3.24120502 58.02004799 3.23990594 48.37416703 3.24514604 C42.60726582 3.24827041 36.84039872 3.24866223 31.07349968 3.24207306 C25.65383623 3.23631347 20.23426661 3.24027096 14.81461334 3.25186157 C12.82071908 3.25451548 10.82681698 3.25373071 8.8329258 3.24933624 C6.12084956 3.24390812 3.40907806 3.25068139 0.69702148 3.26069641 C-0.10053277 3.25623497 -0.89808703 3.25177352 -1.71980959 3.24717689 C-6.01419907 3.11908177 -6.01419907 3.11908177 -9.38182068 5.5146637 Z M-9.38182068 34.5146637 C-9.38182068 72.7946637 -9.38182068 111.0746637 -9.38182068 150.5146637 C60.24817932 150.5146637 129.87817932 150.5146637 201.61817932 150.5146637 C201.61817932 112.2346637 201.61817932 73.9546637 201.61817932 34.5146637 C131.98817932 34.5146637 62.35817932 34.5146637 -9.38182068 34.5146637 Z " fill="#1E5896" transform="translate(97.38182067871094,39.48533630371094)"/>
<path d="M0 0 C2.76974232 1.06947347 4.73780939 2.83768733 6.97172546 4.76133728 C7.73485046 4.12196228 8.49797546 3.48258728 9.28422546 2.82383728 C14.14502627 -0.90654473 19.06206118 -0.86119412 24.97172546 -0.23866272 C30.88317711 1.55113665 34.54110111 4.71630146 37.97172546 9.76133728 C41.07689397 17.51332485 41.56821688 26.88672058 38.34672546 34.69883728 C35.77461894 39.57038885 32.67835848 44.37332035 27.68656921 46.93321228 C24.51081668 47.90193104 21.79004928 48.06220764 18.47172546 48.07383728 C17.36828796 48.09059509 16.26485046 48.10735291 15.12797546 48.12461853 C11.67349139 47.72701083 9.78498938 46.7505668 6.97172546 44.76133728 C6.96556213 45.63085022 6.96556213 45.63085022 6.95927429 46.51792908 C6.9262327 49.16257837 6.85558282 51.80495567 6.78422546 54.44883728 C6.77842468 55.360849 6.7726239 56.27286072 6.76664734 57.21250916 C6.61372637 61.88509422 6.48144724 64.10222845 3.54594421 67.89805603 C0.97172546 69.76133728 0.97172546 69.76133728 -1.02827454 69.88633728 C-4.03656347 68.19417475 -6.28440052 66.7582956 -8.02827454 63.76133728 C-8.80917689 59.44838864 -8.75244741 55.17001346 -8.72749329 50.79649353 C-8.73464859 49.5304277 -8.74180389 48.26436188 -8.74917603 46.95993042 C-8.75695763 44.28356215 -8.75438889 41.60953192 -8.73506165 38.93345642 C-8.71218951 35.51534213 -8.73893929 32.09971633 -8.78012371 28.68184757 C-8.81194955 25.40752352 -8.79869914 22.13342238 -8.78999329 18.85899353 C-8.80527573 17.63696732 -8.82055817 16.4149411 -8.83630371 15.15588379 C-8.70665516 5.69495235 -8.70665516 5.69495235 -5.23066711 1.88023376 C-2.02827454 -0.23866272 -2.02827454 -0.23866272 0 0 Z " fill="#0443A2" transform="translate(637.0282745361328,69.23866271972656)"/>
<path d="M0 0 C2.93292837 1.64977221 4.81825556 3.56141265 7 6.125 C7.60127258 9.15596008 7.60127258 9.15596008 7.56762695 12.56762695 C7.5672493 13.84857742 7.56687164 15.12952789 7.56648254 16.44929504 C7.54095309 17.83730044 7.51487318 19.2252958 7.48828125 20.61328125 C7.47894881 22.04101827 7.47183473 23.46877136 7.46684265 24.89653015 C7.44780601 28.64357168 7.39873633 32.38963493 7.34332275 36.1362915 C7.29205685 39.96377327 7.2693131 43.79141405 7.24414062 47.61914062 C7.19061232 55.12153841 7.10534252 62.62313182 7 70.125 C5.2507786 70.20642927 3.50045458 70.26438541 1.75 70.3125 C0.77546875 70.34730469 -0.1990625 70.38210937 -1.203125 70.41796875 C-4.37468742 70.08575202 -5.67040307 69.23827721 -8 67.125 C-8.67160156 67.7746875 -9.34320313 68.424375 -10.03515625 69.09375 C-13.7489086 71.63808626 -15.97057869 71.66098728 -20.4375 71.625 C-21.71496094 71.6353125 -22.99242187 71.645625 -24.30859375 71.65625 C-29.84016837 70.86017154 -32.89362842 68.56942956 -36.25 64.1875 C-40.64395321 56.49808188 -41.06454084 48.79839012 -40 40.125 C-37.96784574 32.93988316 -34.43675716 28.7529904 -28 25.125 C-25.23728494 24.25725945 -22.77826174 24.00546771 -19.890625 24.02734375 C-19.13652344 24.03056641 -18.38242187 24.03378906 -17.60546875 24.03710938 C-16.82816406 24.04548828 -16.05085938 24.05386719 -15.25 24.0625 C-14.45722656 24.06701172 -13.66445313 24.07152344 -12.84765625 24.07617188 C-10.89840492 24.08791435 -8.94919262 24.10584854 -7 24.125 C-7.05800781 22.81144531 -7.11601562 21.49789062 -7.17578125 20.14453125 C-7.22269048 18.40888977 -7.26818939 16.67320977 -7.3125 14.9375 C-7.35439453 14.07318359 -7.39628906 13.20886719 -7.43945312 12.31835938 C-7.52758406 7.71792433 -7.50312391 5.77750164 -4.60546875 2.01953125 C-2 0.125 -2 0.125 0 0 Z " fill="#0443A2" transform="translate(507,45.875)"/>
<path d="M0 0 C1.04736328 -0.02900391 2.09472656 -0.05800781 3.17382812 -0.08789062 C10.67504437 -0.1484971 18.16478231 0.65594852 24.08813477 5.72509766 C28.78691481 11.03513568 29.85123224 15.8669187 29.6875 22.75390625 C29.13243534 28.43464609 27.01778065 33.70855322 23.1484375 37.98828125 C18.32991513 41.71768555 12.50503638 43.3125 6.5 43.3125 C3.15115362 42.21899914 1.63069872 41.03206641 -0.5625 38.3125 C0.73348789 35.42145008 1.93046136 33.28231607 4.4375 31.3125 C6.42922182 30.62149447 8.42911804 29.95347297 10.4375 29.3125 C13.12209392 26.62790608 12.76716548 25.11509802 12.8125 21.375 C12.85503906 19.78365234 12.85503906 19.78365234 12.8984375 18.16015625 C12.6977296 15.24574114 12.6977296 15.24574114 10.703125 13.453125 C8.18288326 12.18431364 6.61762616 11.939019 3.8125 12 C3.03648437 12.00386719 2.26046875 12.00773437 1.4609375 12.01171875 C-0.78769649 12.14072745 -0.78769649 12.14072745 -2.5625 14.3125 C-2.88630104 16.52759629 -2.88630104 16.52759629 -2.86547852 19.11352539 C-2.89044151 20.61001366 -2.89044151 20.61001366 -2.91590881 22.13673401 C-2.92432297 23.21696335 -2.93273712 24.29719269 -2.94140625 25.41015625 C-2.95840073 26.51475693 -2.9753952 27.6193576 -2.99290466 28.75743103 C-3.04618144 32.29656217 -3.08640145 35.83568065 -3.125 39.375 C-3.16885105 42.91782965 -3.21549355 46.4605656 -3.26780701 50.00328064 C-3.29989149 52.21118678 -3.32674111 54.41917597 -3.34803772 56.62721252 C-3.36152756 57.62171921 -3.3750174 58.61622589 -3.38891602 59.64086914 C-3.39842789 60.52086075 -3.40793976 61.40085236 -3.41773987 62.30751038 C-3.5625 64.3125 -3.5625 64.3125 -4.5625 65.3125 C-6.56049572 65.41123816 -8.56207158 65.44221799 -10.5625 65.4375 C-11.655625 65.44007812 -12.74875 65.44265625 -13.875 65.4453125 C-16.5625 65.3125 -16.5625 65.3125 -17.5625 64.3125 C-17.67202174 62.49298024 -17.71159433 60.66920877 -17.72363281 58.84643555 C-17.73324036 57.67819748 -17.7428479 56.50995941 -17.75274658 55.30632019 C-17.75699646 54.03347672 -17.76124634 52.76063324 -17.765625 51.44921875 C-17.77417511 49.50122124 -17.77417511 49.50122124 -17.78289795 47.51387024 C-17.79341796 44.75899869 -17.79925362 42.0041564 -17.80273438 39.24926758 C-17.80821224 35.72172471 -17.83222027 32.19456919 -17.86070633 28.66714764 C-17.88383393 25.30284525 -17.88578299 21.93859654 -17.890625 18.57421875 C-17.9029718 17.30744797 -17.9153186 16.04067719 -17.92803955 14.73551941 C-17.92503845 13.55782486 -17.92203735 12.38013031 -17.91894531 11.16674805 C-17.92259094 10.13051804 -17.92623657 9.09428802 -17.92999268 8.0266571 C-17.50639015 4.89809464 -16.75962616 3.55103921 -14.5625 1.3125 C-9.80417398 -0.27360867 -4.98418201 0.04484867 0 0 Z " fill="#0342A2" transform="translate(342.5625,51.6875)"/>
<path d="M0 0 C3.57952362 2.64601476 5.73005953 5.3824864 7.171875 9.60546875 C7.86925327 14.59209834 8.05514406 19.29438274 5.171875 23.60546875 C1.92336348 25.6821974 -0.65847305 25.84131611 -4.46875 25.80078125 C-5.53867187 25.79433594 -6.60859375 25.78789063 -7.7109375 25.78125 C-8.82210937 25.76449219 -9.93328125 25.74773437 -11.078125 25.73046875 C-12.20476563 25.72144531 -13.33140625 25.71242188 -14.4921875 25.703125 C-17.27104865 25.67957533 -20.0494789 25.64668555 -22.828125 25.60546875 C-21.08241436 29.80780743 -21.08241436 29.80780743 -17.953125 32.96484375 C-15.48651118 33.70845527 -13.40417373 33.87117636 -10.828125 33.85546875 C-9.5596875 33.86320312 -9.5596875 33.86320312 -8.265625 33.87109375 C-5.66786269 33.58800427 -4.12230487 32.79937868 -1.828125 31.60546875 C4.515625 31.27734375 4.515625 31.27734375 7.171875 32.60546875 C7.48920184 36.09606395 7.63708783 37.96132791 5.546875 40.85546875 C0.19866711 44.79625351 -5.3797703 44.94446607 -11.765625 44.91796875 C-12.92481445 44.94213867 -12.92481445 44.94213867 -14.10742188 44.96679688 C-20.66223879 44.97233772 -25.32740818 43.64093593 -30.515625 39.41796875 C-36.19339129 32.51257732 -37.49512368 27.04647811 -37.21484375 18.01953125 C-36.38070771 10.65554241 -33.56426224 5.36226548 -27.828125 0.60546875 C-19.264349 -5.24296364 -8.93832994 -5.08118438 0 0 Z " fill="#0745A3" transform="translate(611.828125,72.39453125)"/>
<path d="M0 0 C3.9071491 2.66174532 6.36534171 5.74836889 7.875 10.27734375 C7.95981773 12.86364599 7.99098229 15.42212431 7.97265625 18.0078125 C7.9712413 18.75823318 7.96982635 19.50865387 7.96836853 20.28181458 C7.9627756 22.67619835 7.95022444 25.07048828 7.9375 27.46484375 C7.93248408 29.08919136 7.92792134 30.71354043 7.92382812 32.33789062 C7.91280848 36.31774444 7.89554873 40.29752819 7.875 44.27734375 C4.245 44.27734375 0.615 44.27734375 -3.125 44.27734375 C-3.785 42.95734375 -4.445 41.63734375 -5.125 40.27734375 C-5.785 40.27734375 -6.445 40.27734375 -7.125 40.27734375 C-7.455 41.26734375 -7.785 42.25734375 -8.125 43.27734375 C-11.93307089 45.34004882 -15.34233959 45.57483443 -19.625 45.58984375 C-20.7284375 45.60660156 -21.831875 45.62335938 -22.96875 45.640625 C-26.47767077 45.23675169 -28.31112877 44.37405134 -31.125 42.27734375 C-34.42420068 37.49919104 -34.98635899 32.91164494 -34.125 27.27734375 C-31.75153576 21.66733737 -27.92344992 19.77150298 -22.66015625 17.2578125 C-18.51463542 15.65453711 -14.73857468 15.14878293 -10.3125 15.21484375 C-9.52230469 15.22386719 -8.73210937 15.23289062 -7.91796875 15.2421875 C-7.03044922 15.25958984 -7.03044922 15.25958984 -6.125 15.27734375 C-7.21284968 12.0275124 -7.21284968 12.0275124 -9.125 9.27734375 C-10.91337622 9.15209916 -12.70728214 9.10160699 -14.5 9.08984375 C-15.47710937 9.07566406 -16.45421875 9.06148437 -17.4609375 9.046875 C-20.35287022 9.08192392 -20.35287022 9.08192392 -23.125 11.27734375 C-26.8125 10.90234375 -26.8125 10.90234375 -30.125 10.27734375 C-31.01456975 7.87550543 -31.13232232 6.32615921 -30.75 3.77734375 C-24.58698936 -5.70421108 -8.90742489 -4.60107793 0 0 Z " fill="#0644A3" transform="translate(449.125,71.72265625)"/>
<path d="M0 0 C4.45417416 2.76332714 6.76627015 5.81036793 8.5625 10.75 C9.84246845 16.82985016 9.84246845 16.82985016 9.3125 20.3125 C6.76225635 23.41414769 5.13550753 25.03816416 1.3125 26.3125 C-0.38766844 26.39428114 -2.09086297 26.41999501 -3.79296875 26.41015625 C-4.77587891 26.40693359 -5.75878906 26.40371094 -6.77148438 26.40039062 C-7.79564453 26.39201172 -8.81980469 26.38363281 -9.875 26.375 C-11.42864258 26.36823242 -11.42864258 26.36823242 -13.01367188 26.36132812 C-15.57167266 26.3495401 -18.12955733 26.33308515 -20.6875 26.3125 C-18.57423474 31.02092624 -18.57423474 31.02092624 -14.6875 34.3125 C-12.30994051 34.6293217 -12.30994051 34.6293217 -9.75 34.5625 C-8.89535156 34.56765625 -8.04070313 34.5728125 -7.16015625 34.578125 C-4.53637196 34.29626508 -3.00789596 33.50771402 -0.6875 32.3125 C2.08290743 31.9570515 4.49213465 32.13054095 7.3125 32.3125 C9.3125 34.3125 9.3125 34.3125 9.4375 37.6875 C8.3125 41.3125 8.3125 41.3125 6.80419922 42.52392578 C1.22865244 45.35597185 -3.48169555 45.92533281 -9.6875 45.8125 C-10.53828125 45.82796875 -11.3890625 45.8434375 -12.265625 45.859375 C-18.77764298 45.81942397 -24.37691288 44.45051734 -29.21435547 39.86523438 C-34.20043126 34.12248862 -35.05046312 29.92906974 -35.0625 22.5625 C-35.08699219 21.7890625 -35.11148438 21.015625 -35.13671875 20.21875 C-35.16860192 13.8846273 -33.65103456 8.5224408 -29.27514648 3.78271484 C-21.67234027 -2.92313792 -9.23448144 -4.30361682 0 0 Z " fill="#0644A3" transform="translate(558.6875,71.6875)"/>
<path d="M0 0 C69.3 0 138.6 0 210 0 C209.34 1.32 208.68 2.64 208 4 C140.02 4 72.04 4 2 4 C1.34 2.68 0.68 1.36 0 0 Z " fill="#FEFEFE" transform="translate(89,194)"/>
<path d="M0 0 C4.41889613 1.35021826 6.34345343 3.26115668 9 7 C9.928125 5.7934375 9.928125 5.7934375 10.875 4.5625 C13 2 13 2 15 1 C18.00474497 0.86440682 20.99068847 0.95700984 24 1 C24 4.96 24 8.92 24 13 C21.09883446 14.45058277 18.46661581 13.77335044 15.2890625 13.44921875 C12.7785418 13.84964839 12.7785418 13.84964839 10.75390625 16.15625 C7.64664134 21.38990441 8.35864282 27.92775177 8.3125 33.8125 C8.27063586 36.27740953 8.22526385 38.74226289 8.17578125 41.20703125 C8.16458252 42.2947583 8.15338379 43.38248535 8.1418457 44.50317383 C8 47 8 47 7 48 C5.00200428 48.09873816 3.00042842 48.12971799 1 48.125 C-0.093125 48.12757812 -1.18625 48.13015625 -2.3125 48.1328125 C-5 48 -5 48 -6 47 C-6.31725551 41.08828682 -6.35688456 35.17425436 -6.4050293 29.25488281 C-6.42660095 27.258613 -6.46069398 25.26243755 -6.50756836 23.26660156 C-6.57452953 20.39084567 -6.60202327 17.51705028 -6.62109375 14.640625 C-6.64892441 13.75086975 -6.67675507 12.8611145 -6.70542908 11.94439697 C-6.68523186 5.84945622 -6.68523186 5.84945622 -4.62210083 3.29187012 C-2.96118164 1.89746094 -2.96118164 1.89746094 0 0 Z " fill="#0644A3" transform="translate(387,69)"/>
<path d="M0 0 C1.82284546 1.17446899 1.82284546 1.17446899 3.52099609 2.84228516 C4.16451019 3.46358307 4.80802429 4.08488098 5.47103882 4.7250061 C6.14833038 5.40614471 6.82562195 6.08728333 7.5234375 6.7890625 C8.22900787 7.4851059 8.93457825 8.18114929 9.66152954 8.89828491 C11.14867694 10.37327079 12.62936557 11.85479314 14.10400391 13.34228516 C16.36691891 15.61687721 18.65993341 17.85765362 20.95703125 20.09765625 C22.3977744 21.53451465 23.83664239 22.97325624 25.2734375 24.4140625 C25.96287445 25.08305573 26.6523114 25.75204895 27.36264038 26.4413147 C31.89813622 31.09015954 31.89813622 31.09015954 32.3371582 35.01147461 C30.42604113 39.28278811 27.62691103 42.12684248 24.33203125 45.40234375 C23.65959885 46.08430313 22.98716644 46.76626251 22.2943573 47.46888733 C20.87241627 48.90296912 19.44396884 50.33062501 18.00952148 51.75219727 C15.81619529 53.93382442 13.65680228 56.14554992 11.49804688 58.36132812 C10.11131832 59.7519406 8.72270769 61.14067934 7.33203125 62.52734375 C6.68804886 63.19176987 6.04406647 63.85619598 5.38056946 64.54075623 C0.80106481 69.00439502 0.80106481 69.00439502 -3.33740234 68.98168945 C-5.95819546 68.01541317 -7.48375706 67.21896691 -9.4375 65.25 C-9.95183594 64.76015625 -10.46617188 64.2703125 -10.99609375 63.765625 C-12 62 -12 62 -11.77661133 59.62353516 C-10.8812483 56.59883503 -9.85181035 55.41058175 -7.578125 53.2578125 C-6.88203125 52.58363281 -6.1859375 51.90945312 -5.46875 51.21484375 C-4.7365625 50.52519531 -4.004375 49.83554688 -3.25 49.125 C1.75875597 44.35947499 6.17044929 39.77448 10 34 C9.36908447 33.39526855 8.73816895 32.79053711 8.08813477 32.16748047 C5.74285926 29.90765684 3.4092289 27.63659354 1.08276367 25.35742188 C0.07553113 24.37526096 -0.93615306 23.39764316 -1.95239258 22.42480469 C-3.41654898 21.02162491 -4.86366047 19.60262276 -6.30859375 18.1796875 C-7.18314209 17.33132324 -8.05769043 16.48295898 -8.95874023 15.60888672 C-11.29026375 12.62902064 -11.82881283 10.75111841 -12 7 C-10.7421875 4.8828125 -10.7421875 4.8828125 -8.875 3.125 C-8.27429688 2.52945313 -7.67359375 1.93390625 -7.0546875 1.3203125 C-4.44786729 -0.3547925 -3.05921004 -0.30709897 0 0 Z M-6.625 5.5 C-7.40875 6.325 -8.1925 7.15 -9 8 C-7.44668198 11.77443792 -5.11220326 14.04916455 -2.17578125 16.84375 C-1.23025391 17.76027344 -0.28472656 18.67679688 0.68945312 19.62109375 C2.19236827 21.06805322 3.69884168 22.51074818 5.21313477 23.94580078 C6.67765468 25.33798408 8.12621345 26.74689782 9.57421875 28.15625 C10.44651123 28.98962891 11.31880371 29.82300781 12.2175293 30.68164062 C14 33 14 33 14.08349609 34.97753906 C12.52144834 37.89326767 10.44756575 39.88582109 8.08984375 42.203125 C7.60294571 42.6857782 7.11604767 43.1684314 6.61439514 43.66571045 C5.0623455 45.2010085 3.50017864 46.72552925 1.9375 48.25 C0.88147643 49.2909722 -0.17387038 50.3326314 -1.22851562 51.375 C-3.81121415 53.92467633 -6.40308882 56.46479196 -9 59 C-7.54744301 62.82946843 -5.57104439 64.12050295 -2 66 C2.30665428 61.81671836 6.59679415 57.61744121 10.87231445 53.40234375 C12.32977581 51.97006425 13.79168787 50.54229937 15.25805664 49.11914062 C17.3622319 47.07545062 19.44999021 45.01618391 21.53515625 42.953125 C22.52721825 41.99977264 22.52721825 41.99977264 23.5393219 41.02716064 C24.44036903 40.12667999 24.44036903 40.12667999 25.35961914 39.20800781 C25.89478653 38.68394348 26.42995392 38.15987915 26.9813385 37.61993408 C28.20445127 36.03395149 28.20445127 36.03395149 27.83651733 33.9942627 C26.9128061 31.79212919 25.94160448 30.56719724 24.25610352 28.88378906 C23.68203262 28.30348938 23.10796173 27.7231897 22.51649475 27.12530518 C21.89359055 26.51161072 21.27068634 25.89791626 20.62890625 25.265625 C19.99137924 24.62759949 19.35385223 23.98957397 18.69700623 23.33221436 C17.34969116 21.98723754 15.99868722 20.64594733 14.64428711 19.30810547 C12.56510177 17.25257217 10.49961391 15.18398357 8.43554688 13.11328125 C7.12579144 11.80910052 5.81527044 10.50568809 4.50390625 9.203125 C3.88302628 8.58133362 3.2621463 7.95954224 2.62245178 7.31890869 C-1.74757528 2.40366797 -1.74757528 2.40366797 -6.625 5.5 Z " fill="#195493" transform="translate(136,92)"/>
<path d="M0 0 C3.20269833 2.00953621 4.43604092 3.28297809 5.61328125 6.8671875 C6.59131611 11.94506547 5.66111532 15.50936789 3 20 C0.42258873 23.08065252 -2.09271132 25.56587832 -6.09375 26.4765625 C-9.16437051 26.60259543 -11.53601673 26.24810216 -14.25 24.796875 C-16 23 -16 23 -16.20703125 20.51171875 C-16.07683594 19.57972656 -15.94664062 18.64773437 -15.8125 17.6875 C-15.62300781 16.22957031 -15.62300781 16.22957031 -15.4296875 14.7421875 C-15.28789062 13.83726562 -15.14609375 12.93234375 -15 12 C-14.814375 10.783125 -14.62875 9.56625 -14.4375 8.3125 C-14.293125 7.549375 -14.14875 6.78625 -14 6 C-14.99 6.99 -15.98 7.98 -17 9 C-16.51196227 3.5095755 -16.51196227 3.5095755 -14.32421875 1.33203125 C-9.89200242 -1.2081129 -4.93400327 -0.70100593 0 0 Z " fill="#FF0D0D" transform="translate(409,162)"/>
<path d="M0 0 C2.79063526 1.46724122 3.9514363 3.04654558 5 6 C5.72946758 10.57376175 5.60088447 14.49778883 3.875 18.8125 C-1.91775326 25.57071214 -1.91775326 25.57071214 -6.02734375 26.41796875 C-9.09690731 26.53800755 -11.65302424 26.13879031 -14.5 25 C-16.83145027 21.89139964 -16.50590415 18.68587308 -16 15 C-15.38655243 13.31301918 -14.72904086 11.64034193 -14 10 C-14 8.68 -14 7.36 -14 6 C-14.99 6.66 -15.98 7.32 -17 8 C-16.68380083 5.07515764 -16.46762085 3.45563057 -14.32421875 1.3671875 C-9.89373447 -1.23897972 -4.95073173 -0.80373407 0 0 Z " fill="#FF0A0A" transform="translate(515,162)"/>
<path d="M0 0 C3 2 3 2 3.40405273 3.90771484 C3.4359919 6.39791371 3.45776224 8.88458657 3.4375 11.375 C3.4674707 12.67050781 3.4674707 12.67050781 3.49804688 13.9921875 C3.49314749 20.34179494 3.49314749 20.34179494 1.09765625 23.5390625 C-2.7432037 26.21407483 -5.30272363 26.32395009 -10 26 C-13.1850357 24.23984869 -13.83296972 23.50109084 -15 20 C-15.12016328 17.85662235 -15.17531664 15.70920876 -15.1875 13.5625 C-15.20167969 12.42941406 -15.21585937 11.29632813 -15.23046875 10.12890625 C-15.00780797 7.10600307 -14.64865527 5.4988329 -13 3 C-8.73394141 -0.51322472 -5.29895331 -0.42733494 0 0 Z " fill="#F5F7FB" transform="translate(497,80)"/>
<path d="M0 0 C3.4203866 1.17013226 3.91540482 1.87310723 6 5 C6.30078125 7.9609375 6.30078125 7.9609375 6.3125 11.375 C6.32925781 12.49648437 6.34601562 13.61796875 6.36328125 14.7734375 C5.9623153 18.334705 5.14434818 20.15760874 3 23 C-0.21578917 25.14385945 -2.231956 25.4719871 -6.0625 25.39453125 C-8 25 -8 25 -10.4375 22.625 C-13.82594919 16.93240537 -13.69684065 11.54706094 -13 5 C-9.57112094 -0.67908094 -6.11537503 -0.67948611 0 0 Z " fill="#F8FAFC" transform="translate(656,81)"/>
<path d="M0 0 C0.83096191 -0.00622879 1.66192383 -0.01245758 2.51806641 -0.01887512 C3.41187012 -0.00966537 4.30567383 -0.00045563 5.2265625 0.0090332 C6.60787354 0.00828545 6.60787354 0.00828545 8.01708984 0.00752258 C9.96388914 0.00986288 11.91069147 0.01958882 13.85742188 0.03613281 C16.8401185 0.05972394 19.8219213 0.0566936 22.8046875 0.05004883 C24.69531784 0.05562564 26.58594441 0.06273554 28.4765625 0.0715332 C29.81726807 0.07016609 29.81726807 0.07016609 31.18505859 0.06877136 C32.01602051 0.07830338 32.84698242 0.08783539 33.703125 0.09765625 C34.43354004 0.10226364 35.16395508 0.10687103 35.91650391 0.11161804 C37.8515625 0.37231445 37.8515625 0.37231445 40.8515625 2.37231445 C41.21484375 5.12231445 41.21484375 5.12231445 41.1640625 8.37231445 C41.16019531 9.44481445 41.15632813 10.51731445 41.15234375 11.62231445 C40.8515625 14.37231445 40.8515625 14.37231445 38.8515625 16.37231445 C36.95410156 16.62628174 36.95410156 16.62628174 34.6171875 16.63110352 C33.30572754 16.64056 33.30572754 16.64056 31.96777344 16.65020752 C30.54899902 16.64413483 30.54899902 16.64413483 29.1015625 16.63793945 C28.13250977 16.63985291 27.16345703 16.64176636 26.16503906 16.64373779 C24.11392965 16.64510024 22.06281164 16.64139963 20.01171875 16.63305664 C16.86438711 16.62235805 13.7176263 16.63294999 10.5703125 16.64575195 C8.5807279 16.64443037 6.59114366 16.641868 4.6015625 16.63793945 C3.65571289 16.64198792 2.70986328 16.64603638 1.73535156 16.65020752 C0.86104492 16.6439032 -0.01326172 16.63759888 -0.9140625 16.63110352 C-1.68524414 16.62951233 -2.45642578 16.62792114 -3.25097656 16.62628174 C-5.1484375 16.37231445 -5.1484375 16.37231445 -7.1484375 14.37231445 C-7.44921875 11.8762207 -7.44921875 11.8762207 -7.4609375 8.93481445 C-7.47769531 7.96672852 -7.49445313 6.99864258 -7.51171875 6.0012207 C-6.87185585 1.37081501 -4.48464799 -0.00386458 0 0 Z M-4.1484375 4.37231445 C-4.1484375 7.34231445 -4.1484375 10.31231445 -4.1484375 13.37231445 C9.7115625 13.37231445 23.5715625 13.37231445 37.8515625 13.37231445 C37.8515625 10.40231445 37.8515625 7.43231445 37.8515625 4.37231445 C23.9915625 4.37231445 10.1315625 4.37231445 -4.1484375 4.37231445 Z " fill="#1F5996" transform="translate(172.1484375,158.627685546875)"/>
<path d="M0 0 C0.7940625 -0.01417969 1.588125 -0.02835938 2.40625 -0.04296875 C4.5 0.1875 4.5 0.1875 6.5 2.1875 C6.125 4.8125 6.125 4.8125 5.5 7.1875 C3.85 7.5175 2.2 7.8475 0.5 8.1875 C0.5 6.8675 0.5 5.5475 0.5 4.1875 C-1.53241727 4.82729849 -1.53241727 4.82729849 -3.5 6.1875 C-4.31171228 8.74269921 -4.31171228 8.74269921 -4.5 11.1875 C-2.85 10.8575 -1.2 10.5275 0.5 10.1875 C0.5 11.8375 0.5 13.4875 0.5 15.1875 C-1.48 15.1875 -3.46 15.1875 -5.5 15.1875 C-5.17 16.8375 -4.84 18.4875 -4.5 20.1875 C0.2897321 20.42178313 0.2897321 20.42178313 4.5 18.1875 C4.17 15.5475 3.84 12.9075 3.5 10.1875 C7.25 9.0625 7.25 9.0625 9.5 10.1875 C9.83 7.2175 10.16 4.2475 10.5 1.1875 C15.375 2.0625 15.375 2.0625 16.5 3.1875 C16.875 5.5 16.875 5.5 16.5 8.1875 C12.39189189 12.1875 12.39189189 12.1875 9.5 12.1875 C9.4175 13.239375 9.335 14.29125 9.25 15.375 C8.42826951 19.55213 7.52292342 21.24854667 4.5 24.1875 C0.54794418 26.43055871 -3.01214654 26.74848168 -7.5 26.1875 C-10.64119177 23.84831464 -12.25853281 22.45520274 -13 18.5625 C-12.5 16.1875 -12.5 16.1875 -10.9375 14.8125 C-10.463125 14.27625 -9.98875 13.74 -9.5 13.1875 C-9.685625 12.07375 -9.87125 10.96 -10.0625 9.8125 C-10.5 6.1875 -10.5 6.1875 -8.6875 3.3125 C-5.67730724 0.38831275 -4.08838379 0.03318493 0 0 Z " fill="#FF1010" transform="translate(473.5,161.8125)"/>
<path d="M0 0 C0.94875 0.103125 1.8975 0.20625 2.875 0.3125 C3.535 0.3125 4.195 0.3125 4.875 0.3125 C6.54166667 0.3125 8.20833333 0.3125 9.875 0.3125 C10.18787956 8.79501239 9.83571545 17.04859523 4.875 24.3125 C1.8125 25.3125 1.8125 25.3125 -1.125 25.3125 C-1.785 24.6525 -2.445 23.9925 -3.125 23.3125 C-2.75 19.6875 -2.75 19.6875 -2.125 16.3125 C-2.764375 16.18875 -3.40375 16.065 -4.0625 15.9375 C-4.743125 15.73125 -5.42375 15.525 -6.125 15.3125 C-7.73101263 12.10047474 -7.59796969 8.79648802 -7.125 5.3125 C-5.1013176 1.57647096 -4.28107082 0.42810708 0 0 Z " fill="#FF1616" transform="translate(578.125,169.6875)"/>
<path d="M0 0 C3 -0.3125 3 -0.3125 6 0 C6.66 0.66 7.32 1.32 8 2 C8.99 1.34 9.98 0.68 11 0 C13.625 -0.1875 13.625 -0.1875 16 0 C17.98119355 1.98119355 17.18500411 5.73445064 17.1875 8.4375 C17.19974609 9.13166016 17.21199219 9.82582031 17.22460938 10.54101562 C17.22989842 12.36220901 17.12169207 14.1828692 17 16 C16.34 16.66 15.68 17.32 15 18 C10.44444444 17.44444444 10.44444444 17.44444444 9 16 C8.71256474 11.78428287 9.20239787 8.81990452 11 5 C8.95694496 5.67168288 8.95694496 5.67168288 7 7 C6.37374244 9.12226476 6.37374244 9.12226476 6.375 11.5 C6.19322034 15.80677966 6.19322034 15.80677966 4 18 C0.46428571 17.46428571 0.46428571 17.46428571 -1 16 C-1.31121486 11.53925362 -0.58593284 8.1630737 1 4 C0.01 3.67 -0.98 3.34 -2 3 C-1.34 2.01 -0.68 1.02 0 0 Z " fill="#FF1515" transform="translate(592,170)"/>
<path d="M0 0 C1.953125 0.44140625 1.953125 0.44140625 3.953125 2.44140625 C4.328125 4.81640625 4.328125 4.81640625 3.953125 7.44140625 C2.265625 9.75390625 2.265625 9.75390625 -0.046875 11.44140625 C-2.796875 11.69140625 -2.796875 11.69140625 -5.046875 11.44140625 C-4.716875 12.10140625 -4.386875 12.76140625 -4.046875 13.44140625 C-0.581875 12.94640625 -0.581875 12.94640625 2.953125 12.44140625 C2.703125 14.31640625 2.703125 14.31640625 1.953125 16.44140625 C-1.21197618 18.78592564 -4.21022435 18.9894992 -8.046875 18.44140625 C-11.29634275 16.03962574 -12.78868607 14.52110543 -13.734375 10.56640625 C-12.05290885 2.92337828 -7.69080667 -0.4054677 0 0 Z " fill="#FF0E0E" transform="translate(535.046875,169.55859375)"/>
<path d="M0 0 C1.953125 0.44140625 1.953125 0.44140625 3.953125 2.44140625 C4.47302331 5.73409557 4.22624226 7.04223487 2.328125 9.81640625 C-0.046875 11.44140625 -0.046875 11.44140625 -3.296875 11.19140625 C-4.658125 10.82015625 -4.658125 10.82015625 -6.046875 10.44140625 C-5.056875 11.92640625 -5.056875 11.92640625 -4.046875 13.44140625 C-0.581875 12.94640625 -0.581875 12.94640625 2.953125 12.44140625 C2.703125 14.31640625 2.703125 14.31640625 1.953125 16.44140625 C-1.21197618 18.78592564 -4.21022435 18.9894992 -8.046875 18.44140625 C-11.29634275 16.03962574 -12.78868607 14.52110543 -13.734375 10.56640625 C-12.05290885 2.92337828 -7.69080667 -0.4054677 0 0 Z " fill="#FF0D0D" transform="translate(429.046875,169.55859375)"/>
<path d="M0 0 C1.66611905 -0.042721 3.33382885 -0.04063832 5 0 C6 1 6 1 6.125 4.75 C6.09051205 7.94588316 5.77827069 10.88691725 5 14 C7.44764607 12.18400453 8.83789417 10.79934944 9.453125 7.765625 C9.60701181 6.15494303 9.73168537 4.54114967 9.82421875 2.92578125 C10 1 10 1 11 0 C12.66617115 -0.04063832 14.33388095 -0.042721 16 0 C16.37066095 5.2819185 16.24998543 9.00379031 13.3359375 13.51953125 C10.9417056 16.17278823 8.3743377 17.05281749 5 18 C0.61904762 17.61904762 0.61904762 17.61904762 -1 16 C-0.90997602 13.97591245 -0.75358962 11.95455713 -0.5625 9.9375 C-0.46066406 8.83277344 -0.35882813 7.72804687 -0.25390625 6.58984375 C-0.17011719 5.73519531 -0.08632813 4.88054687 0 4 C-0.66 4 -1.32 4 -2 4 C-1.34 2.68 -0.68 1.36 0 0 Z " fill="#FF0B0B" transform="translate(437,170)"/>
<path d="M0 0 C1.21236328 0.02707031 1.21236328 0.02707031 2.44921875 0.0546875 C3.37154297 0.08949219 3.37154297 0.08949219 4.3125 0.125 C4.6425 1.775 4.9725 3.425 5.3125 5.125 C3.9925 5.455 2.6725 5.785 1.3125 6.125 C0.9825 5.135 0.6525 4.145 0.3125 3.125 C-0.3475 3.125 -1.0075 3.125 -1.6875 3.125 C-0.93599977 6.40273504 -0.93599977 6.40273504 2.3125 8.125 C5.3125 10.125 5.3125 10.125 6.3125 13.125 C1.58402318 18.01109272 1.58402318 18.01109272 -1.5625 18.29296875 C-2.26375 18.29941406 -2.965 18.30585938 -3.6875 18.3125 C-4.739375 18.33376953 -4.739375 18.33376953 -5.8125 18.35546875 C-7.6875 18.125 -7.6875 18.125 -9.6875 16.125 C-9.3125 13.5 -9.3125 13.5 -8.6875 11.125 C-7.6975 11.125 -6.7075 11.125 -5.6875 11.125 C-5.3575 12.115 -5.0275 13.105 -4.6875 14.125 C-2.67241642 14.85823796 -2.67241642 14.85823796 -0.6875 15.125 C-1.450625 14.361875 -2.21375 13.59875 -3 12.8125 C-3.886875 11.925625 -4.77375 11.03875 -5.6875 10.125 C-6.30625 9.63 -6.925 9.135 -7.5625 8.625 C-8.6875 7.125 -8.6875 7.125 -8.5625 4.5625 C-6.98061895 0.15583136 -4.21497222 -0.12217311 0 0 Z " fill="#FF0B0B" transform="translate(550.6875,169.875)"/>
<path d="M0 0 C3 0.5625 3 0.5625 5.4375 2.75 C7 5.5625 7 5.5625 6.9375 8.1875 C5.89215986 10.83569502 5.41288502 12.03433949 3 13.5625 C-0.5 14 -0.5 14 -4 13.5625 C-6.38460953 11.48558202 -6.8959746 10.15693084 -7.4375 7.0625 C-6.64602694 2.53979681 -4.41632799 0.8280615 0 0 Z " fill="#1A5594" transform="translate(138,49.4375)"/>
<path d="M0 0 C3.375 0.9375 3.375 0.9375 5.375 3.9375 C5.69662076 7.0250593 5.86224515 9.07765561 4.3125 11.8125 C1.2680714 13.58023274 -1.1881012 13.30573916 -4.625 12.9375 C-6.5625 11.8125 -6.5625 11.8125 -7.625 9.9375 C-8.16352618 6.32168138 -8.04736225 4.59638511 -6.0625 1.5 C-3.625 -0.0625 -3.625 -0.0625 0 0 Z " fill="#114F90" transform="translate(104.625,50.0625)"/>
<path d="M0 0 C1.875 1.0625 1.875 1.0625 3 3 C3.36528977 6.4093712 3.6140629 8.88023824 1.9375 11.9375 C-1.15493758 13.63335287 -3.55514741 13.43060657 -7 13 C-9.38460953 10.92308202 -9.8959746 9.59443084 -10.4375 6.5 C-9.40858438 0.62048215 -5.51867775 -0.82193073 0 0 Z " fill="#104E8F" transform="translate(124,50)"/>
<path d="M0 0 C0.79921875 0.01804687 1.5984375 0.03609375 2.421875 0.0546875 C3.02515625 0.07789062 3.6284375 0.10109375 4.25 0.125 C4.46079572 3.21667049 4.48506168 5.54518118 3.3125 8.4375 C0.11450756 11.05403927 -3.67602739 11.35691495 -7.75 11.125 C-8.41 10.465 -9.07 9.805 -9.75 9.125 C-9.625 5.625 -9.625 5.625 -8.75 2.125 C-5.84271097 0.12220089 -3.47255833 -0.10213407 0 0 Z " fill="#F8F9FC" transform="translate(438.75,95.875)"/>
<path d="M0 0 C2.5 1.6875 2.5 1.6875 4 4 C4 5.65 4 7.3 4 9 C-1.28 9 -6.56 9 -12 9 C-11 3 -11 3 -9.9375 1.125 C-6.76315773 -0.71816648 -3.5134487 -0.6362382 0 0 Z " fill="#F4F7FB" transform="translate(602,79)"/>
<path d="M0 0 C2.4375 1.6875 2.4375 1.6875 4 4 C4 5.65 4 7.3 4 9 C-1.28 9 -6.56 9 -12 9 C-10.48382497 1.41912485 -7.89442322 -1.12777475 0 0 Z " fill="#F6F8FB" transform="translate(550,79)"/>
<path d="M0 0 C0.99 0 1.98 0 3 0 C3 1.32 3 2.64 3 4 C4.32 4 5.64 4 7 4 C6.979375 4.721875 6.95875 5.44375 6.9375 6.1875 C6.99820559 8.91925138 7.39258535 11.34256091 8 14 C5.49415104 16.31309135 4.27714111 16.97826344 0.8125 17.25 C-2 17 -2 17 -3 16 C-3.04063832 14.33382885 -3.042721 12.66611905 -3 11 C-1.02 11 0.96 11 3 11 C3 9.35 3 7.7 3 6 C1.35 6.33 -0.3 6.66 -2 7 C-2.125 4.625 -2.125 4.625 -2 2 C-1.34 1.34 -0.68 0.68 0 0 Z " fill="#FFF2F2" transform="translate(471,166)"/>
<path d="M0 0 C2.6875 0.3125 2.6875 0.3125 5 1 C6.125 5.75 6.125 5.75 5 8 C4.97011197 10.04946506 5.06607276 12.07774318 5.16015625 14.125 C5 16 5 16 3 18 C0.375 17.625 0.375 17.625 -2 17 C-2.16682272 12.07872966 -2.24828052 8.49656104 0 4 C-0.99 3.67 -1.98 3.34 -3 3 C-1.8125 1.4375 -1.8125 1.4375 0 0 Z " fill="#FF0F0F" transform="translate(562,170)"/>
<path d="M0 0 C5.2 1.3 5.2 1.3 7 4 C7.58971053 8.46495113 7.28380937 10.51220265 5 14.4375 C4.01 15.7059375 4.01 15.7059375 3 17 C1.35 16.67 -0.3 16.34 -2 16 C-1.34 10.72 -0.68 5.44 0 0 Z " fill="#FFF1F1" transform="translate(507,166)"/>
<path d="M0 0 C1.65 0.33 3.3 0.66 5 1 C7.48386059 4.72579089 7.3804212 6.58711402 7 11 C5.8125 13.875 5.8125 13.875 4 16 C2.35 16.33 0.7 16.66 -1 17 C-0.67 11.39 -0.34 5.78 0 0 Z " fill="#FFF2F2" transform="translate(401,166)"/>
<path d="M0 0 C0.99 0 1.98 0 3 0 C3 1.32 3 2.64 3 4 C4.32 4 5.64 4 7 4 C5.84826645 6.46800047 4.95216435 8.04783565 3 10 C3 8.68 3 7.36 3 6 C1.35 6.33 -0.3 6.66 -2 7 C-2.125 4.625 -2.125 4.625 -2 2 C-1.34 1.34 -0.68 0.68 0 0 Z " fill="#FFE0E0" transform="translate(471,166)"/>
<path d="M0 0 C2.625 0.375 2.625 0.375 5 1 C5.042721 2.66611905 5.04063832 4.33382885 5 6 C4 7 4 7 1.4375 7.0625 C0.2309375 7.0315625 0.2309375 7.0315625 -1 7 C-1.625 4.625 -1.625 4.625 -2 2 C-1.34 1.34 -0.68 0.68 0 0 Z " fill="#E6ECF3" transform="translate(119,53)"/>
<path d="M0 0 C2.0625 0.4375 2.0625 0.4375 4 1 C3.75 3.875 3.75 3.875 3 7 C0.9375 8.375 0.9375 8.375 -1 9 C-1.33 8.67 -1.66 8.34 -2 8 C-1.28 1.28 -1.28 1.28 0 0 Z " fill="#FFE4E4" transform="translate(578,173)"/>
<path d="M0 0 C2.125 0.375 2.125 0.375 4 1 C4.38218767 2.65614657 4.71395102 4.32457024 5 6 C4 7 4 7 1.4375 7.0625 C0.2309375 7.0315625 0.2309375 7.0315625 -1 7 C-1.625 4.625 -1.625 4.625 -2 2 C-1.34 1.34 -0.68 0.68 0 0 Z " fill="#F0F3F8" transform="translate(102,53)"/>
<path d="M0 0 C1.67542976 0.28604898 3.34385343 0.61781233 5 1 C5 2.65 5 4.3 5 6 C3.34385343 6.38218767 1.67542976 6.71395102 0 7 C-1 6 -1 6 -1.125 3.5 C-1 1 -1 1 0 0 Z " fill="#EDF1F6" transform="translate(136,53)"/>
<path d="M0 0 C2.625 0.375 2.625 0.375 5 1 C4.67 2.65 4.34 4.3 4 6 C2.35 6 0.7 6 -1 6 C-1.625 4.125 -1.625 4.125 -2 2 C-1.34 1.34 -0.68 0.68 0 0 Z " fill="#FF1313" transform="translate(564,162)"/>
<path d="M0 0 C1.32 0 2.64 0 4 0 C3.67 1.65 3.34 3.3 3 5 C1.68 5 0.36 5 -1 5 C-0.67 3.35 -0.34 1.7 0 0 Z " fill="#FFEBEB" transform="translate(424,173)"/>
<path d="M0 0 C4.875 2.625 4.875 2.625 6 6 C4.35 5.67 2.7 5.34 1 5 C1 4.01 1 3.02 1 2 C0.34 1.67 -0.32 1.34 -1 1 C-0.67 0.67 -0.34 0.34 0 0 Z " fill="#FFDEDE" transform="translate(544,179)"/>
<path d="M0 0 C1.32 0 2.64 0 4 0 C3.67 1.65 3.34 3.3 3 5 C1.68 5 0.36 5 -1 5 C-0.67 3.35 -0.34 1.7 0 0 Z " fill="#FFF0F0" transform="translate(530,173)"/>
<path d="M0 0 C2.31 0.66 4.62 1.32 7 2 C6.67 2.66 6.34 3.32 6 4 C4.35 3.67 2.7 3.34 1 3 C0.67 2.01 0.34 1.02 0 0 Z " fill="#FFDFDF" transform="translate(423,180)"/>
<path d="M0 0 C0.99 0.33 1.98 0.66 3 1 C4.1875 3.5625 4.1875 3.5625 5 6 C2.525 5.01 2.525 5.01 0 4 C0 2.68 0 1.36 0 0 Z " fill="#FFD5D5" transform="translate(549,172)"/>
<path d="M0 0 C2.31 0.66 4.62 1.32 7 2 C6.67 2.66 6.34 3.32 6 4 C4.35 3.67 2.7 3.34 1 3 C0.67 2.01 0.34 1.02 0 0 Z " fill="#FFE4E4" transform="translate(529,180)"/>
</svg>
